<svg width="20" height="20" viewBox="0 0 20 20" fill="none" xmlns="http://www.w3.org/2000/svg">
<path d="M19.1348 10.4023C19.1348 10.6465 19.0371 10.8711 18.8418 11.0566L12.3477 17.5312C12.1523 17.7168 11.9473 17.8047 11.7129 17.8047C11.2344 17.8047 10.8633 17.4531 10.8633 16.9648C10.8633 16.7305 10.9414 16.4961 11.0977 16.3496L13.2852 14.123L16.5762 11.125L14.2129 11.2715H1.85938C1.35156 11.2715 1 10.9102 1 10.4023C1 9.89453 1.35156 9.5332 1.85938 9.5332H14.2129L16.5664 9.67969L13.2852 6.68164L11.0977 4.45508C10.9414 4.29883 10.8633 4.07422 10.8633 3.83984C10.8633 3.35156 11.2344 3 11.7129 3C11.9473 3 12.1523 3.07812 12.3672 3.29297L18.8418 9.74805C19.0371 9.93359 19.1348 10.1582 19.1348 10.4023Z" fill="#444444"/>
</svg>
