<svg width="20" height="20" viewBox="0 0 20 20" fill="none" xmlns="http://www.w3.org/2000/svg">
<path d="M0.300781 7.09845C0.300781 3.64142 2.67383 1.20001 5.83789 1.20001C7.64453 1.20001 9.12891 2.06915 9.99805 3.37775C10.8867 2.05939 12.3516 1.20001 14.1582 1.20001C17.3223 1.20001 19.6953 3.64142 19.6953 7.09845C19.6953 11.2586 16.209 15.3504 10.7109 18.866C10.4961 18.993 10.2031 19.1297 9.99805 19.1297C9.79297 19.1297 9.5 18.993 9.29492 18.866C3.78711 15.3504 0.300781 11.2586 0.300781 7.09845ZM1.87305 7.09845C1.87305 10.7313 5.71094 14.6473 9.80273 17.3621C9.89062 17.4305 9.95898 17.4793 9.99805 17.4793C10.0371 17.4793 10.1055 17.4305 10.2031 17.3621C14.2852 14.6473 18.123 10.7313 18.123 7.09845C18.123 4.50079 16.4434 2.77228 14.1777 2.77228C12.3516 2.77228 11.3359 3.93439 10.6621 4.89142C10.3789 5.27228 10.2324 5.38947 9.99805 5.38947C9.76367 5.38947 9.59766 5.28204 9.33398 4.89142C8.70898 3.91486 7.6543 2.77228 5.81836 2.77228C3.55273 2.77228 1.87305 4.50079 1.87305 7.09845Z" fill="#444444"/>
</svg>
