<svg width="20" height="20" viewBox="0 0 20 20" fill="none" xmlns="http://www.w3.org/2000/svg">
<path d="M1 10.4023C1 10.6465 1.09766 10.8711 1.29297 11.0566L7.78711 17.5312C7.98242 17.7168 8.1875 17.8047 8.42188 17.8047C8.90039 17.8047 9.27148 17.4531 9.27148 16.9648C9.27148 16.7305 9.19336 16.4961 9.03711 16.3496L6.84961 14.123L3.55859 11.125L5.92188 11.2715H18.2754C18.7832 11.2715 19.1348 10.9102 19.1348 10.4023C19.1348 9.89453 18.7832 9.5332 18.2754 9.5332H5.92188L3.56836 9.67969L6.84961 6.68164L9.03711 4.45508C9.19336 4.29883 9.27148 4.07422 9.27148 3.83984C9.27148 3.35156 8.90039 3 8.42188 3C8.1875 3 7.98242 3.07812 7.76758 3.29297L1.29297 9.74805C1.09766 9.93359 1 10.1582 1 10.4023Z" fill="#444444"/>
</svg>
